<!DOCTYPE svg PUBLIC "-//W3C//DTD SVG 1.1//EN" "http://www.w3.org/Graphics/SVG/1.1/DTD/svg11.dtd">
<!-- Uploaded to: SVG Repo, www.svgrepo.com, Transformed by: SVG Repo Mixer Tools -->
<svg version="1.1" id="Layer_1" xmlns="http://www.w3.org/2000/svg" xmlns:xlink="http://www.w3.org/1999/xlink" viewBox="0 0 512 512" xml:space="preserve" width="800px" height="800px" fill="#000000">
<g id="SVGRepo_bgCarrier" stroke-width="0"/>
<g id="SVGRepo_tracerCarrier" stroke-linecap="round" stroke-linejoin="round"/>
<g id="SVGRepo_iconCarrier"> <g> <rect x="282.483" y="388.414" style="fill:#464655;" width="35.31" height="17.655"/> <rect x="203.035" y="450.229" style="fill:#464655;" width="35.31" height="17.655"/> </g> <path style="fill:#070d40;" d="M282.483,406.069h-52.965v97.103c0,4.875,3.953,8.828,8.828,8.828h35.31 c4.875,0,8.828-3.953,8.828-8.828V406.069z"/> <polygon style="fill:#464655;" points="282.483,379.586 229.518,379.586 220.69,326.621 291.311,326.621 "/> <path style="fill:#a9b3db;" d="M395.324,319.567c-92.505,20.885-185.075,21.171-277.708,0.857 c-6.663-1.461-11.957-6.722-13.459-13.376C83.271,214.543,82.986,121.974,103.3,29.341c1.461-6.663,6.722-11.957,13.376-13.459 C209.182-5.004,301.751-5.29,394.384,15.024c6.663,1.461,11.957,6.722,13.459,13.376c20.886,92.505,21.172,185.075,0.857,277.708 C407.239,312.771,401.978,318.064,395.324,319.567z"/> <circle style="fill:#464655;" cx="256" cy="167.724" r="70.621"/> <path style="fill:#070d40;" d="M255.975,317.768c-82.526,0.003-149.79-67.005-150.044-149.582 c-0.254-82.733,66.845-150.25,149.578-150.505c0.156,0,0.314,0,0.47,0c39.905,0,77.449,15.478,105.763,43.62 c28.427,28.254,44.151,65.884,44.271,105.961l0,0c0.125,40.077-15.367,77.802-43.616,106.229 c-28.254,28.427-65.884,44.151-105.961,44.276C256.285,317.768,256.125,317.768,255.975,317.768z M255.971,70.646 c-0.099,0-0.199,0-0.298,0c-25.927,0.082-50.276,10.254-68.556,28.647c-18.276,18.392-28.301,42.802-28.22,68.728 c0.163,53.53,44.215,96.914,97.375,96.78c25.931-0.082,50.276-10.254,68.556-28.647c18.28-18.392,28.301-42.797,28.22-68.728l0,0 C352.884,114,309.362,70.646,255.971,70.646z"/> <circle style="fill:#E4EAF6;" cx="255.978" cy="167.724" r="44.056"/> <path style="fill:#070d40;" d="M335.44,432.552c-1.314,0-2.655-0.294-3.914-0.922l-12.793-6.349 c-6.035-2.991-9.793-9.035-9.811-15.763l-0.077-24.392c-0.018-6.737,3.706-12.798,9.716-15.823l12.75-6.426 c4.375-2.194,9.668-0.436,11.858,3.91c2.194,4.358,0.444,9.664-3.91,11.858l-12.755,6.427l0.073,24.396l12.793,6.354 c4.371,2.164,6.151,7.462,3.987,11.828C341.815,430.754,338.691,432.552,335.44,432.552z"/> <path style="fill:#D7DEED;" d="M273.651,244.862c-3.932,0-7.518-2.646-8.543-6.63c-1.219-4.719,1.621-9.535,6.345-10.75 c27.284-7.034,46.34-31.607,46.34-59.758c0-34.073-27.72-61.793-61.793-61.793s-61.793,27.72-61.793,61.793 c0,28.151,19.057,52.724,46.34,59.758c4.724,1.216,7.564,6.03,6.345,10.75c-1.212,4.724-6.013,7.582-10.75,6.345 c-35.086-9.043-59.591-40.646-59.591-76.853c0-43.806,35.642-79.448,79.448-79.448s79.448,35.642,79.448,79.448 c0,36.207-24.504,67.81-59.591,76.853C275.121,244.767,274.379,244.862,273.651,244.862z"/> <g> <path style="fill:#a9b3db;" d="M282.483,423.724h-52.965c-4.875,0-8.828-3.953-8.828-8.828v-35.31c0-4.875,3.953-8.828,8.828-8.828 h52.965c4.875,0,8.828,3.953,8.828,8.828v35.31C291.311,419.772,287.358,423.724,282.483,423.724z"/> <path style="fill:#a9b3db;" d="M203.123,485.517l-8.828,0.028c-4.875,0.015-8.84-3.925-8.855-8.8l-0.109-35.31 c-0.015-4.875,3.925-8.84,8.8-8.855l8.828-0.028c4.875-0.015,8.84,3.925,8.855,8.8l0.109,35.31 C211.939,481.537,207.999,485.502,203.123,485.517z"/> </g> <path style="fill:#070d40;" d="M256,406.069L256,406.069c-4.875,0-8.828-3.953-8.828-8.828v-26.483h17.655v26.483 C264.828,402.116,260.875,406.069,256,406.069z"/> <path style="fill:#D7DEED;" d="M238.345,167.86c-0.061-19.744,12.963-36.298,30.845-41.952c-4.238-1.341-8.668-2.254-13.352-2.24 c-24.332,0.075-43.996,19.861-43.921,44.192s19.861,43.996,44.192,43.919c4.587-0.014,8.92-0.927,13.075-2.24 C251.404,203.914,238.406,187.507,238.345,167.86z"/> <circle style="fill:#FFFFFF;" cx="264.784" cy="158.852" r="17.505"/> </g>
</svg>